# xmcd
#
# Track frame offsets: 
#        150
#        22065
#        38827
#        60730
#
# Disc length: 1031 seconds
#
# Revision: 3
# Processed by: cddbd v1.5.2PL0 Copyright (c) Steve Scherf et al.
# Submitted via: ExactAudioCopyFreeDBPlugin 1.0
#
DISCID=2f040504
DTITLE=ソリディーモ - Landscape
DYEAR=2016
DGENRE=JPop
TTITLE0=Landscape
TTITLE1=Ride on
TTITLE2=Landscape (Instrumental)
TTITLE3=Ride on (Instrumental)
EXTD=YEAR: 1995
EXTT0=
EXTT1=
EXTT2=
EXTT3=
PLAYORDER=
